<?xml version="1.0" encoding="UTF-8"?>
<svg id="Layer_1" data-name="Layer 1" xmlns="http://www.w3.org/2000/svg" viewBox="0 0 330 654">
  <defs>
    <style>
      .cls-1 {
        fill: #cac9c9;
      }

      .cls-2 {
        fill: #fff;
      }
    </style>
  </defs>
  <path class="cls-2" d="M0,653.5V0h330v654H0v-.5ZM173.15,650.27c42.76-.77,82.99-16.51,114.05-45.07,18.38-16.9,30.23-38.52,35.97-62.78,12.11-51.1-5.09-105.87-28.62-151.29-11.37-21.94-23.23-42.47-36.7-63.33l-69.65-107.83c-15.9-24.62-29.64-49.47-41.71-76.03-6.89-15.16-12.18-30.04-15.82-46.11-2.96-13.05-2.88-25.64.34-38.55,4-16.04,14.77-28.03,29.81-35.24,27-12.94,59.4-6.56,80.54,14.73,8.6,8.66,14.38,17.8,20.51,28.91l14.8-3.23c-4.32-11.38-11.77-17.68-19.26-25.69C239.36,19.46,215.32,6.71,188.68,3.76c-38.83-4.3-76.34,6.81-108,29.17-19.55,13.81-34.63,31.21-44.35,53.2l-9.58,21.67c-4.11,9.3-8.92,18.08-11.69,28-4.65,16.63-8.28,33.12-10.32,50.41-1.72,14.56-1.33,28.93-2.19,43.75-1.17,20.37-.88,40.01-.22,60.74l4.02,126.77,1.4,22.79c.85,13.84,2.71,26.52,5.08,40.13l4.74,27.27c2.9,16.7,10.33,31.9,15.8,47.87,3.4,9.92,8.39,17.48,14.22,25.87,6.36,9.16,11.8,18.25,19.34,26.58,28.9,31.93,62.21,43.11,106.22,42.32v-.03Z"/>
  <path class="cls-1" d="M173.15,650.27c-44.01.79-77.31-10.39-106.22-42.32-7.54-8.33-12.98-17.42-19.34-26.58-5.83-8.39-10.82-15.95-14.22-25.87-5.47-15.96-12.9-31.16-15.8-47.87l-4.74-27.27c-2.37-13.61-4.23-26.29-5.08-40.13l-1.4-22.79-4.02-126.77c-.66-20.73-.95-40.37.22-60.74.85-14.82.47-29.19,2.19-43.75,2.05-17.29,5.68-33.78,10.32-50.41,2.77-9.92,7.58-18.71,11.69-28l9.58-21.67c9.72-21.98,24.8-39.39,44.35-53.2C112.34,10.57,149.85-.55,188.68,3.76c26.63,2.95,50.67,15.7,68.73,35.02,7.49,8.01,14.94,14.3,19.26,25.69l-14.8,3.23c-6.13-11.11-11.92-20.26-20.51-28.91-21.14-21.29-53.53-27.68-80.54-14.73-15.03,7.21-25.81,19.19-29.81,35.24-3.22,12.91-3.3,25.5-.34,38.55,3.64,16.07,8.93,30.95,15.82,46.11,12.07,26.57,25.81,51.41,41.71,76.03l69.65,107.83c13.47,20.85,25.33,41.39,36.7,63.33,23.53,45.42,40.73,100.19,28.62,151.29-5.75,24.25-17.59,45.88-35.97,62.78-31.06,28.56-71.3,44.3-114.05,45.07v-.02ZM191.46,610.14c10.66-9.89,16.93-22.8,19.95-36.92,7.55-35.29-1.04-70.75-15.85-103.07-24.75-54.01-62.89-110.92-95.53-160.91-18.01-27.08-35.2-53.47-50.92-81.86-11.99-21.65-20.24-43.5-23.93-68.29-7.21,34.66-8.56,68.2-6.5,102.57l.67,80.38,1.23,52.78,1.56,28.51c.39,7.19-.06,13.78.67,21.02,2.78,27.41,8.14,53.65,15.91,80.05,9.8,33.32,24.83,66.35,50.92,89.6,28.86,25.71,73.85,22.1,101.82-3.85h0Z"/>
  <path class="cls-2" d="M191.46,610.14c-27.98,25.95-72.96,29.56-101.82,3.85-26.09-23.25-41.12-56.28-50.92-89.6-7.77-26.4-13.13-52.64-15.91-80.05-.73-7.24-.27-13.83-.67-21.02l-1.56-28.51-1.23-52.78-.67-80.38c-2.06-34.36-.71-67.9,6.5-102.57,3.69,24.79,11.94,46.64,23.93,68.29,15.72,28.39,32.91,54.77,50.92,81.86,32.64,49.99,70.78,106.9,95.53,160.91,14.81,32.32,23.4,67.78,15.85,103.07-3.02,14.13-9.29,27.04-19.95,36.92h0Z"/>
</svg>