<?xml version="1.0" encoding="UTF-8"?>
<svg id="Layer_2" data-name="Layer 2" xmlns="http://www.w3.org/2000/svg" viewBox="0 0 325.22 648.5">
  <g id="Layer_1-2" data-name="Layer 1">
    <path d="M282.26,606.12c-39.94,34.75-91.58,47.97-143.63,40.24-29.42-4.37-54.59-18.62-74.01-40.84-7.26-8.31-12.67-17.08-18.89-26.1-5.8-8.41-10.81-15.97-14.21-25.91-5.47-15.99-12.9-31.21-15.8-47.94l-4.74-27.31c-2.37-13.63-4.23-26.33-5.08-40.19l-1.4-22.81-3.84-120.07c-.75-23.57-1-46.05.09-69.36l1.91-40.58c.59-12.66,9.07-50.88,14.78-63.67l14.51-32.5c10.81-24.22,25.77-44.28,47.49-59.41C111,7.67,148.23-3.4,186.83.92c26.62,2.98,50.67,15.72,68.72,35.08,7.48,8.02,14.95,14.32,19.25,25.73l-14.79,3.23c-6.13-11.13-11.92-20.29-20.51-28.96-21.14-21.32-53.53-27.72-80.53-14.76-15.04,7.22-25.81,19.22-29.81,35.29-3.22,12.93-3.29,25.54-.34,38.6,3.64,16.1,8.94,31,15.82,46.18,12.05,26.62,25.83,51.48,41.71,76.16l73.82,114.69c16.44,25.54,30.77,51.18,43.1,78.93,17.77,40,28.21,86.93,17.85,130.14-6.08,25.38-19.21,47.78-38.86,64.88ZM189.6,608.23c10.66-9.91,16.93-22.83,19.95-36.98,7.55-35.35-1.04-70.86-15.85-103.23-24.76-54.1-62.89-111.09-95.53-161.15-18.01-27.13-35.2-53.55-50.92-81.98-11.99-21.68-20.24-43.56-23.93-68.39-7.21,34.72-8.56,68.3-6.5,102.72l.67,80.51,1.23,52.86,1.56,28.55c.39,7.2-.06,13.8.67,21.05,2.78,27.45,8.14,53.73,15.91,80.17,9.8,33.37,24.83,66.46,50.92,89.74,28.86,25.75,73.85,22.13,101.82-3.85Z" fill="currentColor"/>
  </g>
</svg>