<?xml version="1.0" encoding="UTF-8"?>
<svg id="Layer_1" data-name="Layer 1" xmlns="http://www.w3.org/2000/svg" viewBox="0 0 325.4 647.46">
  <defs>
    <style>
      .cls-1 {
        fill: #cac9c9;
      }
    </style>
  </defs>
  <path class="cls-1" d="M171.4,647.42c-44.01.79-77.31-10.39-106.22-42.32-7.54-8.33-12.98-17.42-19.34-26.58-5.83-8.39-10.82-15.95-14.22-25.87-5.47-15.96-12.9-31.16-15.8-47.87l-4.74-27.27c-2.37-13.61-4.23-26.29-5.08-40.13l-1.4-22.79L.58,287.82c-.66-20.73-.95-40.37.22-60.74.85-14.82.47-29.19,2.19-43.75,2.05-17.29,5.68-33.78,10.32-50.41,2.77-9.92,7.58-18.71,11.69-28l9.58-21.67c9.72-21.98,24.8-39.39,44.35-53.2C110.59,7.72,148.1-3.4,186.93.91c26.63,2.95,50.67,15.7,68.73,35.02,7.49,8.01,14.94,14.3,19.26,25.69l-14.8,3.23c-6.13-11.11-11.92-20.26-20.51-28.91-21.14-21.29-53.53-27.68-80.54-14.73-15.03,7.21-25.81,19.19-29.81,35.24-3.22,12.91-3.3,25.5-.34,38.55,3.64,16.07,8.93,30.95,15.82,46.11,12.07,26.57,25.81,51.41,41.71,76.03l69.65,107.83c13.47,20.85,25.33,41.39,36.7,63.33,23.53,45.42,40.73,100.19,28.62,151.29-5.75,24.25-17.59,45.88-35.97,62.78-31.06,28.56-71.3,44.3-114.05,45.07v-.02ZM189.71,607.29c10.66-9.89,16.93-22.8,19.95-36.92,7.55-35.29-1.04-70.75-15.85-103.07-24.75-54.01-62.89-110.92-95.53-160.91-18.01-27.08-35.2-53.47-50.92-81.86-11.99-21.65-20.24-43.5-23.93-68.29-7.21,34.66-8.56,68.2-6.5,102.57l.67,80.38,1.23,52.78,1.56,28.51c.39,7.19-.06,13.78.67,21.02,2.78,27.41,8.14,53.65,15.91,80.05,9.8,33.32,24.83,66.35,50.92,89.6,28.86,25.71,73.85,22.1,101.82-3.85h0Z"/>
</svg>